<?xml version="1.0" encoding="UTF-8" standalone="no"?>
<svg
   version="1.1"
   viewBox="139.2 139.21 473.59 473.58"
   id="svg41"
   sodipodi:docname="surface.svg"
   inkscape:version="1.1.2 (b8e25be833, 2022-02-05)"
   xmlns:inkscape="http://www.inkscape.org/namespaces/inkscape"
   xmlns:sodipodi="http://sodipodi.sourceforge.net/DTD/sodipodi-0.dtd"
   xmlns="http://www.w3.org/2000/svg"
   xmlns:svg="http://www.w3.org/2000/svg">
  <sodipodi:namedview
     id="namedview43"
     pagecolor="#ffffff"
     bordercolor="#666666"
     borderopacity="1.0"
     inkscape:pageshadow="2"
     inkscape:pageopacity="0.0"
     inkscape:pagecheckerboard="0"
     showgrid="false"
     inkscape:zoom="1.5182229"
     inkscape:cx="237.11933"
     inkscape:cy="236.46066"
     inkscape:window-width="1920"
     inkscape:window-height="1027"
     inkscape:window-x="-8"
     inkscape:window-y="-8"
     inkscape:window-maximized="1"
     inkscape:current-layer="g39" />
  <defs
     id="defs17">
    <clipPath
       id="e">
      <path
         d="m139.21 139.21h59.789v59.789h-59.789z"
         id="path2" />
    </clipPath>
    <clipPath
       id="d">
      <path
         d="m139.21 553h59.789v59.793h-59.789z"
         id="path5" />
    </clipPath>
    <clipPath
       id="c">
      <path
         d="m553 139.21h59.793v59.789h-59.793z"
         id="path8" />
    </clipPath>
    <clipPath
       id="b">
      <path
         d="m553 553h59.793v59.793h-59.793z"
         id="path11" />
    </clipPath>
    <clipPath
       id="a">
      <path
         d="m139.21 213h473.58v326h-473.58z"
         id="path14" />
    </clipPath>
  </defs>
  <g
     id="g39">
    <g
       clip-path="url(#e)"
       id="g21" />
    <g
       clip-path="url(#d)"
       id="g25" />
    <g
       clip-path="url(#c)"
       id="g29" />
    <g
       clip-path="url(#b)"
       id="g33" />
    <g
       clip-path="url(#a)"
       id="g37">
      <path
         d="m583.19 346.4c-7.7383 0-14.734 3.0547-20.016 7.9336l-159.19-102.33c0.96094-2.9141 1.6133-5.9727 1.6133-9.1953 0-16.324-13.273-29.598-29.598-29.598-16.324 0-29.598 13.273-29.598 29.598 0 3.2266 0.65234 6.2812 1.6055 9.1992l-159.19 102.33c-5.2734-4.8789-12.273-7.9336-20.016-7.9336-16.324 0-29.598 13.273-29.598 29.598s13.273 29.598 29.598 29.598c7.7383 0 14.738-3.0547 20.016-7.9336l159.18 102.34c-0.95312 2.9141-1.6055 5.9609-1.6055 9.1953 0 16.324 13.273 29.598 29.598 29.598s29.598-13.273 29.598-29.598c0-3.2344-0.65234-6.2812-1.6133-9.1992l159.19-102.33c5.2852 4.8789 12.277 7.9375 20.016 7.9375 16.324 0 29.598-13.273 29.598-29.598 0.003907-16.328-13.273-29.602-29.598-29.602zm-69.059 65.199-55.375-35.602 55.371-35.602 41.074 26.402c-0.95703 2.918-1.6094 5.9688-1.6094 9.1992 0 3.2344 0.65234 6.2812 1.6133 9.1992zm-69.07 44.398-55.371-35.602 55.379-35.602 55.371 35.602zm-69.062 23.598c-7.7383 0-14.738 3.0547-20.016 7.9336l-35.363-22.734 55.379-35.598 55.375 35.598-35.355 22.73c-5.2852-4.875-12.277-7.9297-20.02-7.9297zm-124.45-59.199 55.379-35.602 55.379 35.602-55.379 35.605zm-54.758-35.199c0.96094-2.9062 1.6133-5.9648 1.6133-9.1992s-0.65234-6.2891-1.6133-9.1992l41.074-26.402 55.379 35.602-55.379 35.602zm110.14-89.203 55.379 35.605-55.379 35.602-55.379-35.602zm69.066-23.59c7.7383 0 14.734-3.0547 20.016-7.9336l35.359 22.73-55.375 35.602-55.379-35.602 35.363-22.73c5.2773 4.875 12.277 7.9336 20.016 7.9336zm124.44 59.195-55.371 35.602-55.379-35.602 55.371-35.602zm-69.062 44.398-55.379 35.609-55.379-35.609 55.379-35.605zm-55.379-147.99c8.1562 0 14.801 6.6367 14.801 14.801 0 8.1602-6.6445 14.801-14.801 14.801-8.1602 0-14.801-6.6367-14.801-14.801 0.003906-8.1641 6.6406-14.801 14.801-14.801zm-207.19 162.79c-8.1602 0-14.801-6.6367-14.801-14.801 0-8.1602 6.6367-14.801 14.801-14.801 8.1602 0 14.801 6.6367 14.801 14.801s-6.6367 14.801-14.801 14.801zm207.19 133.2c-8.1602 0-14.801-6.6367-14.801-14.801 0-8.1602 6.6367-14.801 14.801-14.801 8.1562 0 14.801 6.6367 14.801 14.801 0 8.1641-6.6445 14.801-14.801 14.801zm207.19-133.2c-5.1875 0-9.7461-2.6992-12.387-6.7578-0.015626-0.023438-0.015626-0.042969-0.03125-0.066407-0.007813-0.015624-0.015626-0.015624-0.023438-0.023437-1.4766-2.2969-2.3555-5.0195-2.3555-7.9531 0-8.1602 6.6367-14.801 14.801-14.801 8.1562 0 14.801 6.6367 14.801 14.801-0.003906 8.1641-6.6484 14.801-14.805 14.801z"
         id="path35" />
    </g>
  </g>
</svg>
