<?xml version="1.0" encoding="UTF-8" standalone="no"?>
<svg
   class="svg-icon"
   style="width: 1em; height: 1em;vertical-align: middle;fill: currentColor;overflow: hidden;"
   viewBox="0 0 1024 1024"
   version="1.1"
   id="svg6"
   sodipodi:docname="arrowdown.svg"
   inkscape:version="1.1.2 (b8e25be833, 2022-02-05)"
   xmlns:inkscape="http://www.inkscape.org/namespaces/inkscape"
   xmlns:sodipodi="http://sodipodi.sourceforge.net/DTD/sodipodi-0.dtd"
   xmlns="http://www.w3.org/2000/svg"
   xmlns:svg="http://www.w3.org/2000/svg">
  <defs
     id="defs10" />
  <sodipodi:namedview
     id="namedview8"
     pagecolor="#ffffff"
     bordercolor="#666666"
     borderopacity="1.0"
     inkscape:pageshadow="2"
     inkscape:pageopacity="0.0"
     inkscape:pagecheckerboard="0"
     showgrid="false"
     inkscape:zoom="0.70214844"
     inkscape:cx="511.2879"
     inkscape:cy="511.2879"
     inkscape:window-width="1920"
     inkscape:window-height="1027"
     inkscape:window-x="-8"
     inkscape:window-y="-8"
     inkscape:window-maximized="1"
     inkscape:current-layer="svg6" />
  <path
     d="m 139.63636,291.77988 a 35.141818,-35.141818 0 0 0 -24.66909,10.24 34.676364,-34.676364 0 0 0 0,49.33818 l 372.36364,372.36363 a 34.909091,-34.909091 0 0 0 49.33818,-49.33818 L 164.30545,302.01988 a 35.141818,-35.141818 0 0 0 -24.66909,-10.24 z"
     id="path2" />
  <path
     d="m 884.36364,291.77988 a 35.141818,-35.141818 0 0 0 -24.66909,10.24 L 487.33091,674.38351 a 34.909091,-34.909091 0 0 0 49.33818,49.33818 L 909.03273,351.35806 a 34.676364,-34.676364 0 0 0 0,-49.33818 35.141818,-35.141818 0 0 0 -24.66909,-10.24 z"
     id="path4" />
</svg>
