<svg xmlns="http://www.w3.org/2000/svg" version="1.1" viewBox="239.62 210.25 272.78 331.51">
 <path d="m382.42 266.6c-24.598-1.7383-48.016 6.4844-65.961 23.195-17.684 16.465-27.824 39.754-27.824 63.883 0 19.66 6.4648 38.289 18.695 53.859 8.9258 11.359 17.602 23.98 25.152 36.586v22.5c0 4.8633 3.9531 8.8242 8.8242 8.8242h68.977c4.8633 0 8.8164-3.9609 8.8164-8.8242l0.003906-21.762c7.9609-13.18 17.422-27.027 25.504-37.305 12.871-16.285 19.492-36.734 18.629-57.582-1.793-43.645-37.293-80.262-80.816-83.375zm52.715 133.49c-8.6797 11.039-18.863 25.996-27.242 40.004l-0.85156 1.4336v21.855l-62.492 0.003906v-22.566l-0.84375-1.4219c-8.0078-13.516-17.305-27.109-26.887-39.297-10.547-13.434-16.121-29.48-16.121-46.41 0-20.797 8.7422-40.867 23.98-55.055 15.473-14.402 35.68-21.504 56.883-19.988 37.488 2.6758 68.074 34.23 69.625 71.832 0.75 18.223-4.793 35.371-16.051 49.609zm-163.89-19.516c-0.69141 0-1.4023 0.10938-2.0508 0.30859l-24.906 8.0859c-3.5547 1.168-5.5 5.0039-4.332 8.543 0.875 2.7031 3.5039 4.5977 6.3867 4.5977 0.76562 0 1.4531-0.09375 2.0703-0.28516l24.906-8.0859c1.7422-0.57422 3.1523-1.7852 3.9688-3.418 0.79688-1.582 0.91797-3.3906 0.35547-5.082-0.89062-2.7891-3.4609-4.6641-6.3984-4.6641zm2.082-67.746-24.855-8.0938c-0.70703-0.22656-1.4258-0.34766-2.1406-0.34766-2.9023 0-5.4609 1.8555-6.3789 4.6328-1.1328 3.5703 0.80859 7.3828 4.3203 8.4961l24.863 8.1445c0.64844 0.20312 1.3398 0.30469 2.1211 0.30469 2.9297 0 5.5078-1.8984 6.3984-4.707 0.55469-1.6523 0.42188-3.4336-0.375-5.0156-0.81641-1.6289-2.2188-2.8398-3.9531-3.4141zm32.535-44.637c1.2188 1.7109 3.2422 2.7266 5.4219 2.7266 1.4258 0 2.7617-0.44922 3.9453-1.3242 1.4336-1.0234 2.3828-2.5625 2.6719-4.3203 0.28906-1.7852-0.125-3.5703-1.1797-5.0195l-15.363-21.207c-1.3086-1.7656-3.3086-2.7852-5.4922-2.7852-1.4258 0-2.793 0.45313-3.9648 1.3008-1.4453 1.0469-2.3945 2.6094-2.6719 4.3945-0.27344 1.7656 0.16016 3.5312 1.2227 4.9648zm70.152-18.297c3.7227 0 6.7422-3.0273 6.7422-6.75v-26.227c0-3.6758-3.0273-6.6719-6.7422-6.6719-3.7227 0-6.75 2.9922-6.75 6.6719v26.227c0 3.7266 3.0273 6.75 6.75 6.75zm60.848 19.746c1.1328 0.83984 2.4727 1.2773 3.8789 1.2773 2.1719 0 4.2109-1.0312 5.4414-2.7578l15.41-21.273c1.0469-1.4141 1.4688-3.168 1.1992-4.9297-0.27344-1.7852-1.2266-3.3516-2.6758-4.3984-1.168-0.84766-2.5352-1.293-3.9531-1.293-2.1562 0-4.1914 1.0234-5.4648 2.7461l-15.391 21.238c-1.0508 1.4492-1.4688 3.2305-1.1797 5.0156 0.28906 1.7891 1.2383 3.3047 2.7344 4.375zm70.898 119.34-24.895-8.0781c-0.67188-0.21484-1.3672-0.32031-2.0664-0.32031-2.9062 0-5.5547 1.918-6.4375 4.6523-1.1602 3.5234 0.77344 7.3398 4.3203 8.5117l24.879 8.0781c0.65234 0.19922 1.3438 0.29688 2.1172 0.29688 2.9062 0 5.4609-1.832 6.3789-4.5742 1.1367-3.5703-0.78906-7.4102-4.2969-8.5664zm-26.996-63.012c0.77344 0 1.4648-0.09375 2.0703-0.28516l24.906-8.0859c3.5156-1.1562 5.4609-4.9727 4.3438-8.5195-0.91797-2.7852-3.5-4.6523-6.4258-4.6523-0.69531 0-1.3789 0.10938-2.0352 0.31641l-24.906 8.0859c-1.7422 0.57422-3.1523 1.7852-3.9688 3.4141-0.78906 1.582-0.91797 3.3906-0.35547 5.0703 0.87891 2.793 3.4414 4.6562 6.3711 4.6562zm-68.043 161.22h-75.402c-3.3281 0-6.0352 2.6992-6.0352 6.0352 0 3.3281 2.6992 6.0352 6.0352 6.0352h75.41c3.3359 0 6.0352-2.6992 6.0352-6.0352-0.003907-3.3359-2.7148-6.0352-6.043-6.0352zm0 21.113h-75.402c-3.3281 0-6.0352 2.6992-6.0352 6.0352 0 3.3359 2.6992 6.0352 6.0352 6.0352h75.41c3.3359 0 6.0352-2.6992 6.0352-6.0352-0.003907-3.3359-2.7148-6.0352-6.043-6.0352zm-15.602 21.391h-45.242c-3.3281 0-6.0352 2.6992-6.0352 6.0352 0.003906 3.332 2.7031 6.0312 6.0312 6.0312h45.242c3.3281 0 6.0352-2.6992 6.0352-6.0352 0-3.332-2.6992-6.0312-6.0312-6.0312z"/>
</svg>